<?xml version="1.0" encoding="utf-8" standalone="no"?>
<!DOCTYPE svg PUBLIC "-//W3C//DTD SVG 1.1//EN"
  "http://www.w3.org/Graphics/SVG/1.1/DTD/svg11.dtd">
<!-- Created with matplotlib (http://matplotlib.org/) -->
<svg height="268pt" version="1.1" viewBox="0 0 323 268" width="323pt" xmlns="http://www.w3.org/2000/svg" xmlns:xlink="http://www.w3.org/1999/xlink">
 <defs>
  <style type="text/css">
*{stroke-linecap:butt;stroke-linejoin:round;}
  </style>
 </defs>
 <g id="figure_1">
  <g id="patch_1">
   <path d="M 0 268.819281 
L 323.443734 268.819281 
L 323.443734 0 
L 0 0 
z
" style="fill:#ffffff;"/>
  </g>
  <g id="axes_1">
   <g id="patch_2">
    <path d="M 89.543734 216.633188 
L 312.743734 216.633188 
L 312.743734 50.313187 
L 89.543734 50.313187 
z
" style="fill:#ffffff;"/>
   </g>
   <g id="matplotlib.axis_1">
    <g id="xtick_1">
     <g id="line2d_1">
      <defs>
       <path d="M 0 0 
L 0 3.5 
" id="m81a318e41a" style="stroke:#000000;"/>
      </defs>
      <g>
       <use style="stroke:#000000;" x="99.689189" xlink:href="#m81a318e41a" y="216.633188"/>
      </g>
     </g>
     <g id="text_1">
      <!-- 0 -->
      <defs>
       <path d="M 31.78125 66.40625 
Q 24.171875 66.40625 20.328125 58.90625 
Q 16.5 51.421875 16.5 36.375 
Q 16.5 21.390625 20.328125 13.890625 
Q 24.171875 6.390625 31.78125 6.390625 
Q 39.453125 6.390625 43.28125 13.890625 
Q 47.125 21.390625 47.125 36.375 
Q 47.125 51.421875 43.28125 58.90625 
Q 39.453125 66.40625 31.78125 66.40625 
M 31.78125 74.21875 
Q 44.046875 74.21875 50.515625 64.515625 
Q 56.984375 54.828125 56.984375 36.375 
Q 56.984375 17.96875 50.515625 8.265625 
Q 44.046875 -1.421875 31.78125 -1.421875 
Q 19.53125 -1.421875 13.0625 8.265625 
Q 6.59375 17.96875 6.59375 36.375 
Q 6.59375 54.828125 13.0625 64.515625 
Q 19.53125 74.21875 31.78125 74.21875 
" id="DejaVuSans-30"/>
      </defs>
      <g transform="translate(94.917314 238.530844)scale(0.15 -0.15)">
       <use xlink:href="#DejaVuSans-30"/>
      </g>
     </g>
    </g>
    <g id="xtick_2">
     <g id="line2d_2">
      <g>
       <use style="stroke:#000000;" x="186.033483" xlink:href="#m81a318e41a" y="216.633188"/>
      </g>
     </g>
     <g id="text_2">
      <!-- 20 -->
      <defs>
       <path d="M 19.1875 8.296875 
L 53.609375 8.296875 
L 53.609375 0 
L 7.328125 0 
L 7.328125 8.296875 
Q 12.9375 14.109375 22.625 23.890625 
Q 32.328125 33.6875 34.8125 36.53125 
Q 39.546875 41.84375 41.421875 45.53125 
Q 43.3125 49.21875 43.3125 52.78125 
Q 43.3125 58.59375 39.234375 62.25 
Q 35.15625 65.921875 28.609375 65.921875 
Q 23.96875 65.921875 18.8125 64.3125 
Q 13.671875 62.703125 7.8125 59.421875 
L 7.8125 69.390625 
Q 13.765625 71.78125 18.9375 73 
Q 24.125 74.21875 28.421875 74.21875 
Q 39.75 74.21875 46.484375 68.546875 
Q 53.21875 62.890625 53.21875 53.421875 
Q 53.21875 48.921875 51.53125 44.890625 
Q 49.859375 40.875 45.40625 35.40625 
Q 44.1875 33.984375 37.640625 27.21875 
Q 31.109375 20.453125 19.1875 8.296875 
" id="DejaVuSans-32"/>
      </defs>
      <g transform="translate(176.489733 238.530844)scale(0.15 -0.15)">
       <use xlink:href="#DejaVuSans-32"/>
       <use x="63.623047" xlink:href="#DejaVuSans-30"/>
      </g>
     </g>
    </g>
    <g id="xtick_3">
     <g id="line2d_3">
      <g>
       <use style="stroke:#000000;" x="272.377777" xlink:href="#m81a318e41a" y="216.633188"/>
      </g>
     </g>
     <g id="text_3">
      <!-- 40 -->
      <defs>
       <path d="M 37.796875 64.3125 
L 12.890625 25.390625 
L 37.796875 25.390625 
z
M 35.203125 72.90625 
L 47.609375 72.90625 
L 47.609375 25.390625 
L 58.015625 25.390625 
L 58.015625 17.1875 
L 47.609375 17.1875 
L 47.609375 0 
L 37.796875 0 
L 37.796875 17.1875 
L 4.890625 17.1875 
L 4.890625 26.703125 
z
" id="DejaVuSans-34"/>
      </defs>
      <g transform="translate(262.834027 238.530844)scale(0.15 -0.15)">
       <use xlink:href="#DejaVuSans-34"/>
       <use x="63.623047" xlink:href="#DejaVuSans-30"/>
      </g>
     </g>
    </g>
    <g id="text_4">
     <!-- # clusters K -->
     <defs>
      <path d="M 51.125 44 
L 36.921875 44 
L 32.8125 27.6875 
L 47.125 27.6875 
z
M 43.796875 71.78125 
L 38.71875 51.515625 
L 52.984375 51.515625 
L 58.109375 71.78125 
L 65.921875 71.78125 
L 60.890625 51.515625 
L 76.125 51.515625 
L 76.125 44 
L 58.984375 44 
L 54.984375 27.6875 
L 70.515625 27.6875 
L 70.515625 20.21875 
L 53.078125 20.21875 
L 48 0 
L 40.1875 0 
L 45.21875 20.21875 
L 30.90625 20.21875 
L 25.875 0 
L 18.015625 0 
L 23.09375 20.21875 
L 7.71875 20.21875 
L 7.71875 27.6875 
L 24.90625 27.6875 
L 29 44 
L 13.28125 44 
L 13.28125 51.515625 
L 30.90625 51.515625 
L 35.890625 71.78125 
z
" id="DejaVuSans-23"/>
      <path id="DejaVuSans-20"/>
      <path d="M 48.78125 52.59375 
L 48.78125 44.1875 
Q 44.96875 46.296875 41.140625 47.34375 
Q 37.3125 48.390625 33.40625 48.390625 
Q 24.65625 48.390625 19.8125 42.84375 
Q 14.984375 37.3125 14.984375 27.296875 
Q 14.984375 17.28125 19.8125 11.734375 
Q 24.65625 6.203125 33.40625 6.203125 
Q 37.3125 6.203125 41.140625 7.25 
Q 44.96875 8.296875 48.78125 10.40625 
L 48.78125 2.09375 
Q 45.015625 0.34375 40.984375 -0.53125 
Q 36.96875 -1.421875 32.421875 -1.421875 
Q 20.0625 -1.421875 12.78125 6.34375 
Q 5.515625 14.109375 5.515625 27.296875 
Q 5.515625 40.671875 12.859375 48.328125 
Q 20.21875 56 33.015625 56 
Q 37.15625 56 41.109375 55.140625 
Q 45.0625 54.296875 48.78125 52.59375 
" id="DejaVuSans-63"/>
      <path d="M 9.421875 75.984375 
L 18.40625 75.984375 
L 18.40625 0 
L 9.421875 0 
z
" id="DejaVuSans-6c"/>
      <path d="M 8.5 21.578125 
L 8.5 54.6875 
L 17.484375 54.6875 
L 17.484375 21.921875 
Q 17.484375 14.15625 20.5 10.265625 
Q 23.53125 6.390625 29.59375 6.390625 
Q 36.859375 6.390625 41.078125 11.03125 
Q 45.3125 15.671875 45.3125 23.6875 
L 45.3125 54.6875 
L 54.296875 54.6875 
L 54.296875 0 
L 45.3125 0 
L 45.3125 8.40625 
Q 42.046875 3.421875 37.71875 1 
Q 33.40625 -1.421875 27.6875 -1.421875 
Q 18.265625 -1.421875 13.375 4.4375 
Q 8.5 10.296875 8.5 21.578125 
M 31.109375 56 
z
" id="DejaVuSans-75"/>
      <path d="M 44.28125 53.078125 
L 44.28125 44.578125 
Q 40.484375 46.53125 36.375 47.5 
Q 32.28125 48.484375 27.875 48.484375 
Q 21.1875 48.484375 17.84375 46.4375 
Q 14.5 44.390625 14.5 40.28125 
Q 14.5 37.15625 16.890625 35.375 
Q 19.28125 33.59375 26.515625 31.984375 
L 29.59375 31.296875 
Q 39.15625 29.25 43.1875 25.515625 
Q 47.21875 21.78125 47.21875 15.09375 
Q 47.21875 7.46875 41.1875 3.015625 
Q 35.15625 -1.421875 24.609375 -1.421875 
Q 20.21875 -1.421875 15.453125 -0.5625 
Q 10.6875 0.296875 5.421875 2 
L 5.421875 11.28125 
Q 10.40625 8.6875 15.234375 7.390625 
Q 20.0625 6.109375 24.8125 6.109375 
Q 31.15625 6.109375 34.5625 8.28125 
Q 37.984375 10.453125 37.984375 14.40625 
Q 37.984375 18.0625 35.515625 20.015625 
Q 33.0625 21.96875 24.703125 23.78125 
L 21.578125 24.515625 
Q 13.234375 26.265625 9.515625 29.90625 
Q 5.8125 33.546875 5.8125 39.890625 
Q 5.8125 47.609375 11.28125 51.796875 
Q 16.75 56 26.8125 56 
Q 31.78125 56 36.171875 55.265625 
Q 40.578125 54.546875 44.28125 53.078125 
" id="DejaVuSans-73"/>
      <path d="M 18.3125 70.21875 
L 18.3125 54.6875 
L 36.8125 54.6875 
L 36.8125 47.703125 
L 18.3125 47.703125 
L 18.3125 18.015625 
Q 18.3125 11.328125 20.140625 9.421875 
Q 21.96875 7.515625 27.59375 7.515625 
L 36.8125 7.515625 
L 36.8125 0 
L 27.59375 0 
Q 17.1875 0 13.234375 3.875 
Q 9.28125 7.765625 9.28125 18.015625 
L 9.28125 47.703125 
L 2.6875 47.703125 
L 2.6875 54.6875 
L 9.28125 54.6875 
L 9.28125 70.21875 
z
" id="DejaVuSans-74"/>
      <path d="M 56.203125 29.59375 
L 56.203125 25.203125 
L 14.890625 25.203125 
Q 15.484375 15.921875 20.484375 11.0625 
Q 25.484375 6.203125 34.421875 6.203125 
Q 39.59375 6.203125 44.453125 7.46875 
Q 49.3125 8.734375 54.109375 11.28125 
L 54.109375 2.78125 
Q 49.265625 0.734375 44.1875 -0.34375 
Q 39.109375 -1.421875 33.890625 -1.421875 
Q 20.796875 -1.421875 13.15625 6.1875 
Q 5.515625 13.8125 5.515625 26.8125 
Q 5.515625 40.234375 12.765625 48.109375 
Q 20.015625 56 32.328125 56 
Q 43.359375 56 49.78125 48.890625 
Q 56.203125 41.796875 56.203125 29.59375 
M 47.21875 32.234375 
Q 47.125 39.59375 43.09375 43.984375 
Q 39.0625 48.390625 32.421875 48.390625 
Q 24.90625 48.390625 20.390625 44.140625 
Q 15.875 39.890625 15.1875 32.171875 
z
" id="DejaVuSans-65"/>
      <path d="M 41.109375 46.296875 
Q 39.59375 47.171875 37.8125 47.578125 
Q 36.03125 48 33.890625 48 
Q 26.265625 48 22.1875 43.046875 
Q 18.109375 38.09375 18.109375 28.8125 
L 18.109375 0 
L 9.078125 0 
L 9.078125 54.6875 
L 18.109375 54.6875 
L 18.109375 46.1875 
Q 20.953125 51.171875 25.484375 53.578125 
Q 30.03125 56 36.53125 56 
Q 37.453125 56 38.578125 55.875 
Q 39.703125 55.765625 41.0625 55.515625 
z
" id="DejaVuSans-72"/>
      <path d="M 9.8125 72.90625 
L 19.671875 72.90625 
L 19.671875 42.09375 
L 52.390625 72.90625 
L 65.09375 72.90625 
L 28.90625 38.921875 
L 67.671875 0 
L 54.6875 0 
L 19.671875 35.109375 
L 19.671875 0 
L 9.8125 0 
z
" id="DejaVuSans-4b"/>
     </defs>
     <g transform="translate(151.222211 258.187797)scale(0.165 -0.165)">
      <use xlink:href="#DejaVuSans-23"/>
      <use x="83.789062" xlink:href="#DejaVuSans-20"/>
      <use x="115.576172" xlink:href="#DejaVuSans-63"/>
      <use x="170.556641" xlink:href="#DejaVuSans-6c"/>
      <use x="198.339844" xlink:href="#DejaVuSans-75"/>
      <use x="261.71875" xlink:href="#DejaVuSans-73"/>
      <use x="313.818359" xlink:href="#DejaVuSans-74"/>
      <use x="353.027344" xlink:href="#DejaVuSans-65"/>
      <use x="414.550781" xlink:href="#DejaVuSans-72"/>
      <use x="455.664062" xlink:href="#DejaVuSans-73"/>
      <use x="507.763672" xlink:href="#DejaVuSans-20"/>
      <use x="539.550781" xlink:href="#DejaVuSans-4b"/>
     </g>
    </g>
   </g>
   <g id="matplotlib.axis_2">
    <g id="ytick_1">
     <g id="line2d_4">
      <defs>
       <path d="M 0 0 
L -3.5 0 
" id="md1b8e36bf4" style="stroke:#000000;"/>
      </defs>
      <g>
       <use style="stroke:#000000;" x="89.543734" xlink:href="#md1b8e36bf4" y="203.402515"/>
      </g>
     </g>
     <g id="text_5">
      <!-- 0.00 -->
      <defs>
       <path d="M 10.6875 12.40625 
L 21 12.40625 
L 21 0 
L 10.6875 0 
z
" id="DejaVuSans-2e"/>
      </defs>
      <g transform="translate(45.645297 209.101343)scale(0.15 -0.15)">
       <use xlink:href="#DejaVuSans-30"/>
       <use x="63.623047" xlink:href="#DejaVuSans-2e"/>
       <use x="95.410156" xlink:href="#DejaVuSans-30"/>
       <use x="159.033203" xlink:href="#DejaVuSans-30"/>
      </g>
     </g>
    </g>
    <g id="ytick_2">
     <g id="line2d_5">
      <g>
       <use style="stroke:#000000;" x="89.543734" xlink:href="#md1b8e36bf4" y="168.057376"/>
      </g>
     </g>
     <g id="text_6">
      <!-- 0.05 -->
      <defs>
       <path d="M 10.796875 72.90625 
L 49.515625 72.90625 
L 49.515625 64.59375 
L 19.828125 64.59375 
L 19.828125 46.734375 
Q 21.96875 47.46875 24.109375 47.828125 
Q 26.265625 48.1875 28.421875 48.1875 
Q 40.625 48.1875 47.75 41.5 
Q 54.890625 34.8125 54.890625 23.390625 
Q 54.890625 11.625 47.5625 5.09375 
Q 40.234375 -1.421875 26.90625 -1.421875 
Q 22.3125 -1.421875 17.546875 -0.640625 
Q 12.796875 0.140625 7.71875 1.703125 
L 7.71875 11.625 
Q 12.109375 9.234375 16.796875 8.0625 
Q 21.484375 6.890625 26.703125 6.890625 
Q 35.15625 6.890625 40.078125 11.328125 
Q 45.015625 15.765625 45.015625 23.390625 
Q 45.015625 31 40.078125 35.4375 
Q 35.15625 39.890625 26.703125 39.890625 
Q 22.75 39.890625 18.8125 39.015625 
Q 14.890625 38.140625 10.796875 36.28125 
z
" id="DejaVuSans-35"/>
      </defs>
      <g transform="translate(45.645297 173.756204)scale(0.15 -0.15)">
       <use xlink:href="#DejaVuSans-30"/>
       <use x="63.623047" xlink:href="#DejaVuSans-2e"/>
       <use x="95.410156" xlink:href="#DejaVuSans-30"/>
       <use x="159.033203" xlink:href="#DejaVuSans-35"/>
      </g>
     </g>
    </g>
    <g id="ytick_3">
     <g id="line2d_6">
      <g>
       <use style="stroke:#000000;" x="89.543734" xlink:href="#md1b8e36bf4" y="132.712237"/>
      </g>
     </g>
     <g id="text_7">
      <!-- 0.10 -->
      <defs>
       <path d="M 12.40625 8.296875 
L 28.515625 8.296875 
L 28.515625 63.921875 
L 10.984375 60.40625 
L 10.984375 69.390625 
L 28.421875 72.90625 
L 38.28125 72.90625 
L 38.28125 8.296875 
L 54.390625 8.296875 
L 54.390625 0 
L 12.40625 0 
z
" id="DejaVuSans-31"/>
      </defs>
      <g transform="translate(45.645297 138.411065)scale(0.15 -0.15)">
       <use xlink:href="#DejaVuSans-30"/>
       <use x="63.623047" xlink:href="#DejaVuSans-2e"/>
       <use x="95.410156" xlink:href="#DejaVuSans-31"/>
       <use x="159.033203" xlink:href="#DejaVuSans-30"/>
      </g>
     </g>
    </g>
    <g id="ytick_4">
     <g id="line2d_7">
      <g>
       <use style="stroke:#000000;" x="89.543734" xlink:href="#md1b8e36bf4" y="97.367098"/>
      </g>
     </g>
     <g id="text_8">
      <!-- 0.15 -->
      <g transform="translate(45.645297 103.065926)scale(0.15 -0.15)">
       <use xlink:href="#DejaVuSans-30"/>
       <use x="63.623047" xlink:href="#DejaVuSans-2e"/>
       <use x="95.410156" xlink:href="#DejaVuSans-31"/>
       <use x="159.033203" xlink:href="#DejaVuSans-35"/>
      </g>
     </g>
    </g>
    <g id="ytick_5">
     <g id="line2d_8">
      <g>
       <use style="stroke:#000000;" x="89.543734" xlink:href="#md1b8e36bf4" y="62.021959"/>
      </g>
     </g>
     <g id="text_9">
      <!-- 0.20 -->
      <g transform="translate(45.645297 67.720787)scale(0.15 -0.15)">
       <use xlink:href="#DejaVuSans-30"/>
       <use x="63.623047" xlink:href="#DejaVuSans-2e"/>
       <use x="95.410156" xlink:href="#DejaVuSans-32"/>
       <use x="159.033203" xlink:href="#DejaVuSans-30"/>
      </g>
     </g>
    </g>
    <g id="text_10">
     <!-- pct. var. expl. -->
     <defs>
      <path d="M 18.109375 8.203125 
L 18.109375 -20.796875 
L 9.078125 -20.796875 
L 9.078125 54.6875 
L 18.109375 54.6875 
L 18.109375 46.390625 
Q 20.953125 51.265625 25.265625 53.625 
Q 29.59375 56 35.59375 56 
Q 45.5625 56 51.78125 48.09375 
Q 58.015625 40.1875 58.015625 27.296875 
Q 58.015625 14.40625 51.78125 6.484375 
Q 45.5625 -1.421875 35.59375 -1.421875 
Q 29.59375 -1.421875 25.265625 0.953125 
Q 20.953125 3.328125 18.109375 8.203125 
M 48.6875 27.296875 
Q 48.6875 37.203125 44.609375 42.84375 
Q 40.53125 48.484375 33.40625 48.484375 
Q 26.265625 48.484375 22.1875 42.84375 
Q 18.109375 37.203125 18.109375 27.296875 
Q 18.109375 17.390625 22.1875 11.75 
Q 26.265625 6.109375 33.40625 6.109375 
Q 40.53125 6.109375 44.609375 11.75 
Q 48.6875 17.390625 48.6875 27.296875 
" id="DejaVuSans-70"/>
      <path d="M 2.984375 54.6875 
L 12.5 54.6875 
L 29.59375 8.796875 
L 46.6875 54.6875 
L 56.203125 54.6875 
L 35.6875 0 
L 23.484375 0 
z
" id="DejaVuSans-76"/>
      <path d="M 34.28125 27.484375 
Q 23.390625 27.484375 19.1875 25 
Q 14.984375 22.515625 14.984375 16.5 
Q 14.984375 11.71875 18.140625 8.90625 
Q 21.296875 6.109375 26.703125 6.109375 
Q 34.1875 6.109375 38.703125 11.40625 
Q 43.21875 16.703125 43.21875 25.484375 
L 43.21875 27.484375 
z
M 52.203125 31.203125 
L 52.203125 0 
L 43.21875 0 
L 43.21875 8.296875 
Q 40.140625 3.328125 35.546875 0.953125 
Q 30.953125 -1.421875 24.3125 -1.421875 
Q 15.921875 -1.421875 10.953125 3.296875 
Q 6 8.015625 6 15.921875 
Q 6 25.140625 12.171875 29.828125 
Q 18.359375 34.515625 30.609375 34.515625 
L 43.21875 34.515625 
L 43.21875 35.40625 
Q 43.21875 41.609375 39.140625 45 
Q 35.0625 48.390625 27.6875 48.390625 
Q 23 48.390625 18.546875 47.265625 
Q 14.109375 46.140625 10.015625 43.890625 
L 10.015625 52.203125 
Q 14.9375 54.109375 19.578125 55.046875 
Q 24.21875 56 28.609375 56 
Q 40.484375 56 46.34375 49.84375 
Q 52.203125 43.703125 52.203125 31.203125 
" id="DejaVuSans-61"/>
      <path d="M 54.890625 54.6875 
L 35.109375 28.078125 
L 55.90625 0 
L 45.3125 0 
L 29.390625 21.484375 
L 13.484375 0 
L 2.875 0 
L 24.125 28.609375 
L 4.6875 54.6875 
L 15.28125 54.6875 
L 29.78125 35.203125 
L 44.28125 54.6875 
z
" id="DejaVuSans-78"/>
     </defs>
     <g transform="translate(19.737422 190.396898)rotate(-90)scale(0.165 -0.165)">
      <use xlink:href="#DejaVuSans-70"/>
      <use x="63.476562" xlink:href="#DejaVuSans-63"/>
      <use x="118.457031" xlink:href="#DejaVuSans-74"/>
      <use x="157.666016" xlink:href="#DejaVuSans-2e"/>
      <use x="189.453125" xlink:href="#DejaVuSans-20"/>
      <use x="221.240234" xlink:href="#DejaVuSans-76"/>
      <use x="280.419922" xlink:href="#DejaVuSans-61"/>
      <use x="341.699219" xlink:href="#DejaVuSans-72"/>
      <use x="382.671875" xlink:href="#DejaVuSans-2e"/>
      <use x="414.458984" xlink:href="#DejaVuSans-20"/>
      <use x="446.246094" xlink:href="#DejaVuSans-65"/>
      <use x="507.753906" xlink:href="#DejaVuSans-78"/>
      <use x="566.933594" xlink:href="#DejaVuSans-70"/>
      <use x="630.410156" xlink:href="#DejaVuSans-6c"/>
      <use x="658.193359" xlink:href="#DejaVuSans-2e"/>
     </g>
     <!--  $V_k-V_{k-1}$ -->
     <defs>
      <path d="M 20.609375 0 
L 7.8125 72.90625 
L 17.484375 72.90625 
L 28.078125 10.203125 
L 63.484375 72.90625 
L 74.21875 72.90625 
L 32.078125 0 
z
" id="DejaVuSans-Oblique-56"/>
      <path d="M 18.3125 75.984375 
L 27.296875 75.984375 
L 18.703125 31.6875 
L 49.515625 54.6875 
L 61.1875 54.6875 
L 26.8125 28.515625 
L 51.90625 0 
L 41.015625 0 
L 17.671875 26.703125 
L 12.5 0 
L 3.515625 0 
z
" id="DejaVuSans-Oblique-6b"/>
      <path d="M 10.59375 35.5 
L 73.1875 35.5 
L 73.1875 27.203125 
L 10.59375 27.203125 
z
" id="DejaVuSans-2212"/>
     </defs>
     <g transform="translate(38.213813 175.465688)rotate(-90)scale(0.165 -0.165)">
      <use transform="translate(0 0.09375)" xlink:href="#DejaVuSans-20"/>
      <use transform="translate(31.787109 0.09375)" xlink:href="#DejaVuSans-Oblique-56"/>
      <use transform="translate(100.195312 -16.3125)scale(0.7)" xlink:href="#DejaVuSans-Oblique-6b"/>
      <use transform="translate(162.949219 0.09375)" xlink:href="#DejaVuSans-2212"/>
      <use transform="translate(266.220703 0.09375)" xlink:href="#DejaVuSans-Oblique-56"/>
      <use transform="translate(334.628906 -16.3125)scale(0.7)" xlink:href="#DejaVuSans-Oblique-6b"/>
      <use transform="translate(388.803711 -16.3125)scale(0.7)" xlink:href="#DejaVuSans-2212"/>
      <use transform="translate(461.09375 -16.3125)scale(0.7)" xlink:href="#DejaVuSans-31"/>
     </g>
    </g>
   </g>
   <g id="line2d_9">
    <path clip-path="url(#p879b736da6)" d="M 99.689189 82.455891 
L 104.006404 156.701042 
L 108.323618 175.011566 
L 112.640833 181.529838 
L 116.958048 185.230092 
L 121.275262 191.791303 
L 125.592477 190.469237 
L 129.909692 198.086382 
L 134.226907 188.274181 
L 138.544121 198.419623 
L 142.861336 198.920583 
L 147.178551 196.980711 
L 151.495765 203.523999 
L 155.81298 191.383929 
L 160.130195 196.356786 
L 164.447409 197.392103 
L 168.764624 206.095904 
L 173.081839 194.94965 
L 177.399054 199.166391 
L 181.716268 201.97737 
L 186.033483 195.337218 
L 190.350698 204.175184 
L 194.667912 199.185097 
L 198.985127 197.223818 
L 203.302342 203.502019 
L 207.619556 203.460441 
L 211.936771 200.704752 
L 216.253986 193.165324 
L 220.571201 206.485452 
L 224.888415 199.664532 
L 229.20563 199.657709 
L 233.522845 201.9569 
L 237.840059 207.309881 
L 242.157274 195.901748 
L 246.474489 199.928813 
L 250.791703 209.073188 
L 255.108918 193.630244 
L 259.426133 201.406255 
L 263.743348 204.281391 
L 268.060562 205.139309 
L 272.377777 199.603514 
L 276.694992 200.487576 
L 281.012206 202.463711 
L 285.329421 199.595617 
L 289.646636 202.384633 
L 293.96385 204.937125 
L 298.281065 202.976553 
L 302.59828 198.026233 
" style="fill:none;stroke:#008000;stroke-linecap:square;stroke-width:3;"/>
   </g>
   <g id="line2d_10">
    <path clip-path="url(#p879b736da6)" d="M 99.689189 57.873187 
L 104.006404 151.659836 
L 108.323618 163.836946 
L 112.640833 189.52895 
L 116.958048 183.443358 
L 121.275262 177.421504 
L 125.592477 198.219925 
L 129.909692 188.264246 
L 134.226907 192.968344 
L 138.544121 192.053576 
L 142.861336 201.104404 
L 147.178551 205.660649 
L 151.495765 185.290666 
L 155.81298 198.29537 
L 160.130195 201.449217 
L 164.447409 191.944411 
L 168.764624 200.598525 
L 173.081839 204.818125 
L 177.399054 194.813782 
L 181.716268 198.084167 
L 186.033483 198.133474 
L 190.350698 205.174804 
L 194.667912 200.39006 
L 198.985127 199.71962 
L 203.302342 201.334921 
L 207.619556 198.772502 
L 211.936771 199.824564 
L 216.253986 203.278139 
L 220.571201 200.647933 
L 224.888415 202.050735 
L 229.20563 200.118518 
L 233.522845 202.456557 
L 237.840059 201.933766 
L 242.157274 203.225486 
L 246.474489 198.628234 
L 250.791703 203.196987 
L 255.108918 202.045578 
L 259.426133 201.475325 
L 263.743348 201.528996 
L 268.060562 200.526327 
L 272.377777 204.566449 
L 276.694992 202.385012 
L 281.012206 200.878967 
L 285.329421 202.607294 
L 289.646636 200.844629 
L 293.96385 204.533793 
L 298.281065 201.171518 
L 302.59828 200.547054 
" style="fill:none;stroke:#ff0000;stroke-dasharray:8.4,3.6;stroke-dashoffset:0;stroke-width:3;"/>
   </g>
   <g id="line2d_11">
    <path clip-path="url(#p879b736da6)" d="M 142.861336 216.633188 
L 142.861336 50.313187 
" style="fill:none;stroke:#000000;stroke-linecap:square;stroke-width:1.75;"/>
   </g>
   <g id="patch_3">
    <path d="M 89.543734 216.633188 
L 89.543734 50.313187 
" style="fill:none;stroke:#000000;stroke-linecap:square;stroke-linejoin:miter;stroke-width:0.8;"/>
   </g>
   <g id="patch_4">
    <path d="M 312.743734 216.633188 
L 312.743734 50.313187 
" style="fill:none;stroke:#000000;stroke-linecap:square;stroke-linejoin:miter;stroke-width:0.8;"/>
   </g>
   <g id="patch_5">
    <path d="M 89.543734 216.633188 
L 312.743734 216.633188 
" style="fill:none;stroke:#000000;stroke-linecap:square;stroke-linejoin:miter;stroke-width:0.8;"/>
   </g>
   <g id="patch_6">
    <path d="M 89.543734 50.313187 
L 312.743734 50.313187 
" style="fill:none;stroke:#000000;stroke-linecap:square;stroke-linejoin:miter;stroke-width:0.8;"/>
   </g>
   <g id="text_11">
    <!-- $|V_k-V_{k-1}|&lt;10^{-3}$ -->
    <defs>
     <path d="M 21 76.421875 
L 21 -23.578125 
L 12.703125 -23.578125 
L 12.703125 76.421875 
z
" id="DejaVuSans-7c"/>
     <path d="M 73.1875 49.21875 
L 22.796875 31.296875 
L 73.1875 13.484375 
L 73.1875 4.59375 
L 10.59375 27.296875 
L 10.59375 35.40625 
L 73.1875 58.109375 
z
" id="DejaVuSans-3c"/>
     <path d="M 40.578125 39.3125 
Q 47.65625 37.796875 51.625 33 
Q 55.609375 28.21875 55.609375 21.1875 
Q 55.609375 10.40625 48.1875 4.484375 
Q 40.765625 -1.421875 27.09375 -1.421875 
Q 22.515625 -1.421875 17.65625 -0.515625 
Q 12.796875 0.390625 7.625 2.203125 
L 7.625 11.71875 
Q 11.71875 9.328125 16.59375 8.109375 
Q 21.484375 6.890625 26.8125 6.890625 
Q 36.078125 6.890625 40.9375 10.546875 
Q 45.796875 14.203125 45.796875 21.1875 
Q 45.796875 27.640625 41.28125 31.265625 
Q 36.765625 34.90625 28.71875 34.90625 
L 20.21875 34.90625 
L 20.21875 43.015625 
L 29.109375 43.015625 
Q 36.375 43.015625 40.234375 45.921875 
Q 44.09375 48.828125 44.09375 54.296875 
Q 44.09375 59.90625 40.109375 62.90625 
Q 36.140625 65.921875 28.71875 65.921875 
Q 24.65625 65.921875 20.015625 65.03125 
Q 15.375 64.15625 9.8125 62.3125 
L 9.8125 71.09375 
Q 15.4375 72.65625 20.34375 73.4375 
Q 25.25 74.21875 29.59375 74.21875 
Q 40.828125 74.21875 47.359375 69.109375 
Q 53.90625 64.015625 53.90625 55.328125 
Q 53.90625 49.265625 50.4375 45.09375 
Q 46.96875 40.921875 40.578125 39.3125 
" id="DejaVuSans-33"/>
    </defs>
    <g transform="translate(151.495765 168.057376)scale(0.18 -0.18)">
     <use transform="translate(0 0.765625)" xlink:href="#DejaVuSans-7c"/>
     <use transform="translate(33.691406 0.765625)" xlink:href="#DejaVuSans-Oblique-56"/>
     <use transform="translate(102.099609 -15.640625)scale(0.7)" xlink:href="#DejaVuSans-Oblique-6b"/>
     <use transform="translate(164.853516 0.765625)" xlink:href="#DejaVuSans-2212"/>
     <use transform="translate(268.125 0.765625)" xlink:href="#DejaVuSans-Oblique-56"/>
     <use transform="translate(336.533203 -15.640625)scale(0.7)" xlink:href="#DejaVuSans-Oblique-6b"/>
     <use transform="translate(390.708008 -15.640625)scale(0.7)" xlink:href="#DejaVuSans-2212"/>
     <use transform="translate(462.998047 -15.640625)scale(0.7)" xlink:href="#DejaVuSans-31"/>
     <use transform="translate(510.268555 0.765625)" xlink:href="#DejaVuSans-7c"/>
     <use transform="translate(563.442383 0.765625)" xlink:href="#DejaVuSans-3c"/>
     <use transform="translate(666.713867 0.765625)" xlink:href="#DejaVuSans-31"/>
     <use transform="translate(730.336914 0.765625)" xlink:href="#DejaVuSans-30"/>
     <use transform="translate(794.916992 39.046875)scale(0.7)" xlink:href="#DejaVuSans-2212"/>
     <use transform="translate(853.569336 39.046875)scale(0.7)" xlink:href="#DejaVuSans-33"/>
    </g>
   </g>
   <g id="text_12">
    <!-- Optimum # clusters $K^*$  -->
    <defs>
     <path d="M 39.40625 66.21875 
Q 28.65625 66.21875 22.328125 58.203125 
Q 16.015625 50.203125 16.015625 36.375 
Q 16.015625 22.609375 22.328125 14.59375 
Q 28.65625 6.59375 39.40625 6.59375 
Q 50.140625 6.59375 56.421875 14.59375 
Q 62.703125 22.609375 62.703125 36.375 
Q 62.703125 50.203125 56.421875 58.203125 
Q 50.140625 66.21875 39.40625 66.21875 
M 39.40625 74.21875 
Q 54.734375 74.21875 63.90625 63.9375 
Q 73.09375 53.65625 73.09375 36.375 
Q 73.09375 19.140625 63.90625 8.859375 
Q 54.734375 -1.421875 39.40625 -1.421875 
Q 24.03125 -1.421875 14.8125 8.828125 
Q 5.609375 19.09375 5.609375 36.375 
Q 5.609375 53.65625 14.8125 63.9375 
Q 24.03125 74.21875 39.40625 74.21875 
" id="DejaVuSans-4f"/>
     <path d="M 9.421875 54.6875 
L 18.40625 54.6875 
L 18.40625 0 
L 9.421875 0 
z
M 9.421875 75.984375 
L 18.40625 75.984375 
L 18.40625 64.59375 
L 9.421875 64.59375 
z
" id="DejaVuSans-69"/>
     <path d="M 52 44.1875 
Q 55.375 50.25 60.0625 53.125 
Q 64.75 56 71.09375 56 
Q 79.640625 56 84.28125 50.015625 
Q 88.921875 44.046875 88.921875 33.015625 
L 88.921875 0 
L 79.890625 0 
L 79.890625 32.71875 
Q 79.890625 40.578125 77.09375 44.375 
Q 74.3125 48.1875 68.609375 48.1875 
Q 61.625 48.1875 57.5625 43.546875 
Q 53.515625 38.921875 53.515625 30.90625 
L 53.515625 0 
L 44.484375 0 
L 44.484375 32.71875 
Q 44.484375 40.625 41.703125 44.40625 
Q 38.921875 48.1875 33.109375 48.1875 
Q 26.21875 48.1875 22.15625 43.53125 
Q 18.109375 38.875 18.109375 30.90625 
L 18.109375 0 
L 9.078125 0 
L 9.078125 54.6875 
L 18.109375 54.6875 
L 18.109375 46.1875 
Q 21.1875 51.21875 25.484375 53.609375 
Q 29.78125 56 35.6875 56 
Q 41.65625 56 45.828125 52.96875 
Q 50 49.953125 52 44.1875 
" id="DejaVuSans-6d"/>
     <path d="M 16.890625 72.90625 
L 26.8125 72.90625 
L 20.796875 42.1875 
L 59.078125 72.90625 
L 72.21875 72.90625 
L 28.90625 38.09375 
L 60.59375 0 
L 48.578125 0 
L 19.484375 35.5 
L 12.59375 0 
L 2.6875 0 
z
" id="DejaVuSans-Oblique-4b"/>
     <path d="M 47.015625 60.890625 
L 29.5 51.421875 
L 47.015625 41.890625 
L 44.1875 37.109375 
L 27.78125 47.015625 
L 27.78125 28.609375 
L 22.21875 28.609375 
L 22.21875 47.015625 
L 5.8125 37.109375 
L 2.984375 41.890625 
L 20.515625 51.421875 
L 2.984375 60.890625 
L 5.8125 65.71875 
L 22.21875 55.8125 
L 22.21875 74.21875 
L 27.78125 74.21875 
L 27.78125 55.8125 
L 44.1875 65.71875 
z
" id="DejaVuSans-2a"/>
    </defs>
    <g transform="translate(92.333734 23.616562)scale(0.18 -0.18)">
     <use transform="translate(0 0.765625)" xlink:href="#DejaVuSans-4f"/>
     <use transform="translate(78.710938 0.765625)" xlink:href="#DejaVuSans-70"/>
     <use transform="translate(142.1875 0.765625)" xlink:href="#DejaVuSans-74"/>
     <use transform="translate(181.396484 0.765625)" xlink:href="#DejaVuSans-69"/>
     <use transform="translate(209.179688 0.765625)" xlink:href="#DejaVuSans-6d"/>
     <use transform="translate(306.591797 0.765625)" xlink:href="#DejaVuSans-75"/>
     <use transform="translate(369.970703 0.765625)" xlink:href="#DejaVuSans-6d"/>
     <use transform="translate(467.382812 0.765625)" xlink:href="#DejaVuSans-20"/>
     <use transform="translate(499.169922 0.765625)" xlink:href="#DejaVuSans-23"/>
     <use transform="translate(582.958984 0.765625)" xlink:href="#DejaVuSans-20"/>
     <use transform="translate(614.746094 0.765625)" xlink:href="#DejaVuSans-63"/>
     <use transform="translate(669.726562 0.765625)" xlink:href="#DejaVuSans-6c"/>
     <use transform="translate(697.509766 0.765625)" xlink:href="#DejaVuSans-75"/>
     <use transform="translate(760.888672 0.765625)" xlink:href="#DejaVuSans-73"/>
     <use transform="translate(812.988281 0.765625)" xlink:href="#DejaVuSans-74"/>
     <use transform="translate(852.197266 0.765625)" xlink:href="#DejaVuSans-65"/>
     <use transform="translate(913.720703 0.765625)" xlink:href="#DejaVuSans-72"/>
     <use transform="translate(954.833984 0.765625)" xlink:href="#DejaVuSans-73"/>
     <use transform="translate(1006.933594 0.765625)" xlink:href="#DejaVuSans-20"/>
     <use transform="translate(1038.720703 0.765625)" xlink:href="#DejaVuSans-Oblique-4b"/>
     <use transform="translate(1124.951341 39.046875)scale(0.7)" xlink:href="#DejaVuSans-2a"/>
     <use transform="translate(1176.323411 0.765625)" xlink:href="#DejaVuSans-20"/>
    </g>
    <!-- (real vs synthetic) -->
    <defs>
     <path d="M 31 75.875 
Q 24.46875 64.65625 21.28125 53.65625 
Q 18.109375 42.671875 18.109375 31.390625 
Q 18.109375 20.125 21.3125 9.0625 
Q 24.515625 -2 31 -13.1875 
L 23.1875 -13.1875 
Q 15.875 -1.703125 12.234375 9.375 
Q 8.59375 20.453125 8.59375 31.390625 
Q 8.59375 42.28125 12.203125 53.3125 
Q 15.828125 64.359375 23.1875 75.875 
z
" id="DejaVuSans-28"/>
     <path d="M 32.171875 -5.078125 
Q 28.375 -14.84375 24.75 -17.8125 
Q 21.140625 -20.796875 15.09375 -20.796875 
L 7.90625 -20.796875 
L 7.90625 -13.28125 
L 13.1875 -13.28125 
Q 16.890625 -13.28125 18.9375 -11.515625 
Q 21 -9.765625 23.484375 -3.21875 
L 25.09375 0.875 
L 2.984375 54.6875 
L 12.5 54.6875 
L 29.59375 11.921875 
L 46.6875 54.6875 
L 56.203125 54.6875 
z
" id="DejaVuSans-79"/>
     <path d="M 54.890625 33.015625 
L 54.890625 0 
L 45.90625 0 
L 45.90625 32.71875 
Q 45.90625 40.484375 42.875 44.328125 
Q 39.84375 48.1875 33.796875 48.1875 
Q 26.515625 48.1875 22.3125 43.546875 
Q 18.109375 38.921875 18.109375 30.90625 
L 18.109375 0 
L 9.078125 0 
L 9.078125 54.6875 
L 18.109375 54.6875 
L 18.109375 46.1875 
Q 21.34375 51.125 25.703125 53.5625 
Q 30.078125 56 35.796875 56 
Q 45.21875 56 50.046875 50.171875 
Q 54.890625 44.34375 54.890625 33.015625 
" id="DejaVuSans-6e"/>
     <path d="M 54.890625 33.015625 
L 54.890625 0 
L 45.90625 0 
L 45.90625 32.71875 
Q 45.90625 40.484375 42.875 44.328125 
Q 39.84375 48.1875 33.796875 48.1875 
Q 26.515625 48.1875 22.3125 43.546875 
Q 18.109375 38.921875 18.109375 30.90625 
L 18.109375 0 
L 9.078125 0 
L 9.078125 75.984375 
L 18.109375 75.984375 
L 18.109375 46.1875 
Q 21.34375 51.125 25.703125 53.5625 
Q 30.078125 56 35.796875 56 
Q 45.21875 56 50.046875 50.171875 
Q 54.890625 44.34375 54.890625 33.015625 
" id="DejaVuSans-68"/>
     <path d="M 8.015625 75.875 
L 15.828125 75.875 
Q 23.140625 64.359375 26.78125 53.3125 
Q 30.421875 42.28125 30.421875 31.390625 
Q 30.421875 20.453125 26.78125 9.375 
Q 23.140625 -1.703125 15.828125 -13.1875 
L 8.015625 -13.1875 
Q 14.5 -2 17.703125 9.0625 
Q 20.90625 20.125 20.90625 31.390625 
Q 20.90625 42.671875 17.703125 53.65625 
Q 14.5 64.65625 8.015625 75.875 
" id="DejaVuSans-29"/>
    </defs>
    <g transform="translate(119.668422 43.809188)scale(0.18 -0.18)">
     <use xlink:href="#DejaVuSans-28"/>
     <use x="39.013672" xlink:href="#DejaVuSans-72"/>
     <use x="80.095703" xlink:href="#DejaVuSans-65"/>
     <use x="141.619141" xlink:href="#DejaVuSans-61"/>
     <use x="202.898438" xlink:href="#DejaVuSans-6c"/>
     <use x="230.681641" xlink:href="#DejaVuSans-20"/>
     <use x="262.46875" xlink:href="#DejaVuSans-76"/>
     <use x="321.648438" xlink:href="#DejaVuSans-73"/>
     <use x="373.748047" xlink:href="#DejaVuSans-20"/>
     <use x="405.535156" xlink:href="#DejaVuSans-73"/>
     <use x="457.634766" xlink:href="#DejaVuSans-79"/>
     <use x="516.814453" xlink:href="#DejaVuSans-6e"/>
     <use x="580.193359" xlink:href="#DejaVuSans-74"/>
     <use x="619.402344" xlink:href="#DejaVuSans-68"/>
     <use x="682.78125" xlink:href="#DejaVuSans-65"/>
     <use x="744.304688" xlink:href="#DejaVuSans-74"/>
     <use x="783.513672" xlink:href="#DejaVuSans-69"/>
     <use x="811.296875" xlink:href="#DejaVuSans-63"/>
     <use x="866.277344" xlink:href="#DejaVuSans-29"/>
    </g>
   </g>
   <g id="legend_1">
    <g id="patch_7">
     <path d="M 207.891391 106.347562 
L 302.243734 106.347562 
Q 305.243734 106.347562 305.243734 103.347562 
L 305.243734 60.813187 
Q 305.243734 57.813187 302.243734 57.813187 
L 207.891391 57.813187 
Q 204.891391 57.813187 204.891391 60.813187 
L 204.891391 103.347562 
Q 204.891391 106.347562 207.891391 106.347562 
z
" style="fill:#ffffff;opacity:0.8;stroke:#cccccc;stroke-linejoin:miter;stroke-width:0.3;"/>
    </g>
    <g id="line2d_12">
     <path d="M 210.891391 69.960844 
L 240.891391 69.960844 
" style="fill:none;stroke:#008000;stroke-linecap:square;stroke-width:3;"/>
    </g>
    <g id="line2d_13"/>
    <g id="text_13">
     <!-- real -->
     <g transform="translate(252.891391 75.210844)scale(0.15 -0.15)">
      <use xlink:href="#DejaVuSans-72"/>
      <use x="41.082031" xlink:href="#DejaVuSans-65"/>
      <use x="102.605469" xlink:href="#DejaVuSans-61"/>
      <use x="163.884766" xlink:href="#DejaVuSans-6c"/>
     </g>
    </g>
    <g id="line2d_14">
     <path d="M 210.891391 91.978031 
L 240.891391 91.978031 
" style="fill:none;stroke:#ff0000;stroke-dasharray:8.4,3.6;stroke-dashoffset:0;stroke-width:3;"/>
    </g>
    <g id="line2d_15"/>
    <g id="text_14">
     <!-- synth. -->
     <g transform="translate(252.891391 97.228031)scale(0.15 -0.15)">
      <use xlink:href="#DejaVuSans-73"/>
      <use x="52.099609" xlink:href="#DejaVuSans-79"/>
      <use x="111.279297" xlink:href="#DejaVuSans-6e"/>
      <use x="174.658203" xlink:href="#DejaVuSans-74"/>
      <use x="213.867188" xlink:href="#DejaVuSans-68"/>
      <use x="277.246094" xlink:href="#DejaVuSans-2e"/>
     </g>
    </g>
   </g>
  </g>
 </g>
 <defs>
  <clipPath id="p879b736da6">
   <rect height="166.32" width="223.2" x="89.543734" y="50.313187"/>
  </clipPath>
 </defs>
</svg>
